<?xml version="1.0" encoding="UTF-8" standalone="no"?>
<!-- Created with Inkscape (http://www.inkscape.org/) -->

<svg
   width="39.819199mm"
   height="9.1086464mm"
   viewBox="0 0 39.819198 9.1086465"
   version="1.1"
   id="svg1"
   sodipodi:docname="logo.svg"
   inkscape:version="1.4 (e7c3feb100, 2024-10-09)"
   xmlns:inkscape="http://www.inkscape.org/namespaces/inkscape"
   xmlns:sodipodi="http://sodipodi.sourceforge.net/DTD/sodipodi-0.dtd"
   xmlns="http://www.w3.org/2000/svg"
   xmlns:svg="http://www.w3.org/2000/svg">
  <sodipodi:namedview
     id="namedview1"
     pagecolor="#ffffff"
     bordercolor="#000000"
     borderopacity="0.25"
     inkscape:showpageshadow="2"
     inkscape:pageopacity="0.0"
     inkscape:pagecheckerboard="0"
     inkscape:deskcolor="#d1d1d1"
     inkscape:document-units="mm"
     inkscape:zoom="4.1720929"
     inkscape:cx="67.232444"
     inkscape:cy="1.9175029"
     inkscape:window-width="1492"
     inkscape:window-height="932"
     inkscape:window-x="0"
     inkscape:window-y="0"
     inkscape:window-maximized="1"
     inkscape:current-layer="svg1" />
  <defs
     id="defs1" />
  <g
     id="g1">
    <path
       id="rect1"
       style="fill:#e6e6e6;stroke-width:0.0386044"
       d="M 5.0766351e-7,-4.894266e-7 H 4.5581114 m 0,0 V 4.5581083 H 5.0766351e-7 m 0,0 V -4.894266e-7" />
    <path
       id="rect1-5"
       style="fill:#00d2ce;fill-opacity:1;stroke-width:0.0386044"
       d="M 9.1162415,0.00292586 H 4.5581284 m 0,0 V 4.5610346 h 4.5581131 m 0,0 V 0.00292586" />
    <path
       id="rect1-5-2"
       style="fill:#00a5d2;fill-opacity:1;stroke-width:0.0386044"
       d="M 0.00538277,9.108646 H 4.563492 m 0,0 V 4.550533 H 0.00538277 m 0,0 v 4.558113" />
    <rect
       style="opacity:0.66;fill:#049fd9;fill-opacity:1;stroke-width:0.0503544"
       id="rect2"
       width="6.4290152"
       height="0.6003868"
       x="-3.741879"
       y="9.096302"
       transform="matrix(0.71651238,-0.69757438,0.74632919,0.665577,0,0)" />
    <rect
       style="opacity:0.66;fill:#049fd9;fill-opacity:1;stroke-width:0.0352926"
       id="rect2-7"
       width="3.2958341"
       height="0.57531291"
       x="4.8158584"
       y="4.8411121"
       transform="matrix(0.97946521,0.20161323,-0.22589519,0.97415161,0,0)" />
    <rect
       style="opacity:0.66;fill:#049fd9;fill-opacity:1;stroke-width:0.0344964"
       id="rect2-7-6"
       width="3.075212"
       height="0.58908719"
       x="4.958992"
       y="-5.3469086"
       transform="matrix(0.19682921,0.98043779,-0.98066678,0.19568514,0,0)" />
    <path
       style="font-size:15.3682px;font-family:'Nimbus Sans';-inkscape-font-specification:'Nimbus Sans';fill:#28b4d8;stroke-width:0.789522"
       d="M 13.16896,4.7907827 9.9725,3.4376789 V 3.9540813 L 12.54797,5.0261026 9.9725,6.0785157 v 0.5164024 l 3.19646,-1.3531037 z m 1.41847,0.078437 0.777868,-0.7778681 1.67994,2.4447333 h 0.71904 l -1.961019,-2.8238654 1.94141,-1.9414058 h -0.78441 l -2.372829,2.41205 v -2.41205 H 13.979511 V 6.536085 H 14.58743 Z M 18.274142,3.1108425 V 6.536085 h 0.549086 V 4.7580952 c 0.0066,-0.8236263 0.346445,-1.1896834 1.098167,-1.170071 V 3.0324011 c -0.09151,-0.013058 -0.143808,-0.019608 -0.209174,-0.019608 -0.352982,0 -0.62099,0.2091785 -0.934751,0.7190434 V 3.1108468 Z m 4.412298,0 -0.947826,2.6669825 -0.875922,-2.6669825 h -0.581769 l 1.157,3.4383174 -0.209174,0.5425482 c -0.09152,0.2418617 -0.209174,0.3333739 -0.437961,0.3333739 -0.09151,0 -0.169953,-0.013058 -0.287616,-0.039216 v 0.4902567 c 0.111125,0.058829 0.22225,0.084975 0.366058,0.084975 0.176491,0 0.366057,-0.058829 0.509864,-0.1634161 0.169954,-0.1241996 0.268004,-0.2680075 0.372595,-0.5425481 l 1.523057,-4.1442859 z m 1.085096,4.8502501 h 0.549086 V 6.1765654 c 0.287616,0.3529863 0.607915,0.5098649 1.052413,0.5098649 0.888993,0 1.464224,-0.7125017 1.464224,-1.8041355 0,-1.1504627 -0.562156,-1.8695062 -1.470761,-1.8695062 -0.464107,0 -0.836702,0.2091786 -1.091634,0.6144564 V 3.1108425 h -0.503328 z m 1.503445,-4.438439 c 0.601381,0 0.993584,0.5294774 0.993584,1.3465662 0,0.7778724 -0.39874,1.3073456 -0.993584,1.3073456 -0.581769,0 -0.954359,-0.5229357 -0.954359,-1.3269538 0,-0.8040181 0.37259,-1.326958 0.954359,-1.326958 z M 28.69369,3.1108425 H 28.13153 V 2.1695541 H 27.588982 V 3.1108425 H 27.124875 V 3.555341 h 0.464107 v 2.5885411 c 0,0.3529864 0.235324,0.5425482 0.66021,0.5425482 0.143808,0 0.26147,-0.013058 0.444498,-0.045754 V 6.1831028 c -0.07844,0.019608 -0.150345,0.026158 -0.26147,0.026158 -0.235324,0 -0.30069,-0.065366 -0.30069,-0.3072239 V 3.5553538 h 0.56216 z m 1.856436,-0.098054 c -0.967439,0 -1.54267,0.6863603 -1.54267,1.836823 0,1.1570002 0.575231,1.8368187 1.549203,1.8368187 0.967438,0 1.549207,-0.686356 1.549207,-1.810673 0,-1.1896834 -0.56216,-1.8629687 -1.55574,-1.8629687 z m 0.0066,0.5033317 c 0.614452,0 0.980509,0.5033275 0.980509,1.3530995 0,0.8105556 -0.379128,1.313883 -0.980509,1.313883 -0.607915,0 -0.980509,-0.5033274 -0.980509,-1.3334912 0,-0.8301638 0.372594,-1.3334913 0.980509,-1.3334913 z M 32.864139,3.1108425 V 6.536085 h 0.549086 V 4.6469706 c 0,-0.6994268 0.366057,-1.1570002 0.928217,-1.1570002 0.431424,0 0.705965,0.2614699 0.705965,0.6732852 V 6.536085 h 0.542548 V 3.9475438 c 0,-0.5686981 -0.424886,-0.9347552 -1.085097,-0.9347552 -0.509865,0 -0.836701,0.1961036 -1.137387,0.6732853 V 3.1108425 Z m 6.95508,4.248873 h -3.922036 v 0.3268364 h 3.922036 z"
       id="text1"
       aria-label="&gt;Krypton_" />
  </g>
</svg>
